{
  "accessors": [
    {
      "bufferView": 2,
      "componentType": 5126,
      "count": 65532,
      "max": [
        188.99732971191406,
        290.6903076171875,
        239.28741455078125
      ],
      "min": [
        -246.11143493652344,
        -302.96563720703125,
        1.2981580495834351
      ],
      "type": "VEC3"
    },
    {
      "bufferView": 2,
      "byteOffset": 786384,
      "componentType": 5126,
      "count": 65532,
      "max": [
        0.99994254112243652,
        0.99997603893280029,
        0.99874180555343628
      ],
      "min": [
        -0.99828451871871948,
        -0.99987107515335083,
        -0.99996137619018555
      ],
      "type": "VEC3"
    },
    {
      "bufferView": 3,
      "componentType": 5126,
      "count": 65532,
      "max": [
        0.99994730949401855,
        0.98247766494750977,
        0.99996215105056763,
        1
      ],
      "min": [
        -0.99999129772186279,
        -0.9999968409538269,
        -0.99999821186065674,
        -1
      ],
      "type": "VEC4"
    },
    {
      "bufferView": 1,
      "componentType": 5126,
      "count": 65532,
      "max": [
        0.99926799535751343,
        0.99569499492645264
      ],
      "min": [
        0.00073199998587369919,
        0.0007379999733529985
      ],
      "type": "VEC2"
    },
    {
      "bufferView": 0,
      "componentType": 5125,
      "count": 343917,
      "max": [
        65531
      ],
      "min": [
        0
      ],
      "type": "SCALAR"
    },
    {
      "bufferView": 2,
      "byteOffset": 1572768,
      "componentType": 5126,
      "count": 65532,
      "max": [
        243.41729736328125,
        217.35206604003906,
        509.49444580078125
      ],
      "min": [
        -263.23379516601562,
        -227.46676635742188,
        1.298145055770874
      ],
      "type": "VEC3"
    },
    {
      "bufferView": 2,
      "byteOffset": 2359152,
      "componentType": 5126,
      "count": 65532,
      "max": [
        0.99987936019897461,
        0.99999141693115234,
        0.99997413158416748
      ],
      "min": [
        -0.99964016675949097,
        -0.99999642372131348,
        -0.99993681907653809
      ],
      "type": "VEC3"
    },
    {
      "bufferView": 3,
      "byteOffset": 1048512,
      "componentType": 5126,
      "count": 65532,
      "max": [
        0.9991995096206665,
        0.99970781803131104,
        0.9992368221282959,
        1
      ],
      "min": [
        -0.99990338087081909,
        -0.99994140863418579,
        -0.99999427795410156,
        -1
      ],
      "type": "VEC4"
    },
    {
      "bufferView": 1,
      "byteOffset": 524256,
      "componentType": 5126,
      "count": 65532,
      "max": [
        0.99926799535751343,
        0.99926197528839111
      ],
      "min": [
        0.00073199998587369919,
        0.0011070000473409891
      ],
      "type": "VEC2"
    },
    {
      "bufferView": 0,
      "byteOffset": 1375668,
      "componentType": 5125,
      "count": 350988,
      "max": [
        65531
      ],
      "min": [
        0
      ],
      "type": "SCALAR"
    },
    {
      "bufferView": 2,
      "byteOffset": 3145536,
      "componentType": 5126,
      "count": 57148,
      "max": [
        245.17474365234375,
        290.6903076171875,
        514.77789306640625
      ],
      "min": [
        -263.23379516601562,
        -302.96563720703125,
        1.298145055770874
      ],
      "type": "VEC3"
    },
    {
      "bufferView": 2,
      "byteOffset": 3831312,
      "componentType": 5126,
      "count": 57148,
      "max": [
        0.99990224838256836,
        0.99996614456176758,
        0.99995100498199463
      ],
      "min": [
        -0.99999117851257324,
        -0.99945122003555298,
        -0.99943268299102783
      ],
      "type": "VEC3"
    },
    {
      "bufferView": 3,
      "byteOffset": 2097024,
      "componentType": 5126,
      "count": 57148,
      "max": [
        0.99919384717941284,
        0.99683880805969238,
        0.99999606609344482,
        1
      ],
      "min": [
        -0.99999356269836426,
        -0.99996817111968994,
        -0.99999994039535522,
        -1
      ],
      "type": "VEC4"
    },
    {
      "bufferView": 1,
      "byteOffset": 1048512,
      "componentType": 5126,
      "count": 57148,
      "max": [
        0.99926799535751343,
        0.9928399920463562
      ],
      "min": [
        0.0030519999563694,
        0.0078720003366470337
      ],
      "type": "VEC2"
    },
    {
      "bufferView": 0,
      "byteOffset": 2779620,
      "componentType": 5125,
      "count": 303852,
      "max": [
        57147
      ],
      "min": [
        0
      ],
      "type": "SCALAR"
    }
  ],
  "asset": {
    "extras": {
      "author": "Coltranne (https://sketchfab.com/Coltranne)",
      "license": "CC-BY-4.0 (http://creativecommons.org/licenses/by/4.0/)",
      "source": "https://sketchfab.com/models/d281e5e165204f89a760552cf9f79897",
      "title": "My bald father bust"
    },
    "generator": "Sketchfab-3.18.5",
    "version": "2.0"
  },
  "bufferViews": [
    {
      "buffer": 0,
      "byteLength": 3995028,
      "byteOffset": 0,
      "name": "floatBufferViews",
      "target": 34963
    },
    {
      "buffer": 0,
      "byteLength": 1505696,
      "byteOffset": 3995028,
      "byteStride": 8,
      "name": "floatBufferViews",
      "target": 34962
    },
    {
      "buffer": 0,
      "byteLength": 4517088,
      "byteOffset": 5500724,
      "byteStride": 12,
      "name": "floatBufferViews",
      "target": 34962
    },
    {
      "buffer": 0,
      "byteLength": 3011392,
      "byteOffset": 10017812,
      "byteStride": 16,
      "name": "floatBufferViews",
      "target": 34962
    }
  ],
  "buffers": [
    {
      "byteLength": 13029204,
      "uri": "scene.bin"
    }
  ],
  "extensionsUsed": [
    "KHR_materials_unlit"
  ],
  "images": [
    {
      "uri": "textures/Material_0.001_baseColor.jpeg"
    }
  ],
  "materials": [
    {
      "doubleSided": true,
      "emissiveFactor": [
        0,
        0,
        0
      ],
      "extensions": {
        "KHR_materials_unlit": {}
      },
      "name": "Material_0.001",
      "pbrMetallicRoughness": {
        "baseColorFactor": [
          1,
          1,
          1,
          1
        ],
        "baseColorTexture": {
          "index": 0,
          "texCoord": 0
        },
        "metallicFactor": 0,
        "roughnessFactor": 1
      }
    }
  ],
  "meshes": [
    {
      "primitives": [
        {
          "attributes": {
            "NORMAL": 1,
            "POSITION": 0,
            "TANGENT": 2,
            "TEXCOORD_0": 3
          },
          "indices": 4,
          "material": 0,
          "mode": 4
        }
      ]
    },
    {
      "primitives": [
        {
          "attributes": {
            "NORMAL": 6,
            "POSITION": 5,
            "TANGENT": 7,
            "TEXCOORD_0": 8
          },
          "indices": 9,
          "material": 0,
          "mode": 4
        }
      ]
    },
    {
      "primitives": [
        {
          "attributes": {
            "NORMAL": 11,
            "POSITION": 10,
            "TANGENT": 12,
            "TEXCOORD_0": 13
          },
          "indices": 14,
          "material": 0,
          "mode": 4
        }
      ]
    }
  ],
  "nodes": [
    {
      "children": [
        1
      ],
      "name": "RootNode (gltf orientation matrix)",
      "rotation": [
        -0.70710678118654746,
        -0,
        -0,
        0.70710678118654757
      ]
    },
    {
      "children": [
        2
      ],
      "name": "RootNode (model correction matrix)"
    },
    {
      "children": [
        3,
        4,
        5
      ],
      "name": "Pela3.obj.cleaner.materialmerger.gles"
    },
    {
      "mesh": 0,
      "name": ""
    },
    {
      "mesh": 1,
      "name": ""
    },
    {
      "mesh": 2,
      "name": ""
    }
  ],
  "samplers": [
    {
      "magFilter": 9729,
      "minFilter": 9987,
      "wrapS": 10497,
      "wrapT": 10497
    }
  ],
  "scene": 0,
  "scenes": [
    {
      "name": "OSG_Scene",
      "nodes": [
        0
      ]
    }
  ],
  "textures": [
    {
      "sampler": 0,
      "source": 0
    }
  ]
}

